<svg width="25" height="26" viewBox="0 0 25 26" fill="none" xmlns="http://www.w3.org/2000/svg">
<path d="M20.3125 23.4481H20.1797C4.82812 22.5683 2.64843 9.65817 2.34374 5.71818C2.31919 5.41184 2.35553 5.10368 2.45068 4.81137C2.54582 4.51905 2.69791 4.24832 2.89821 4.01468C3.09852 3.78104 3.34311 3.58909 3.61797 3.44983C3.89283 3.31057 4.19257 3.22674 4.49999 3.20313H8.80468C9.11762 3.20282 9.42343 3.29618 9.68252 3.47111C9.94161 3.64604 10.142 3.89447 10.2578 4.18423L11.4453 7.0964C11.5596 7.37947 11.588 7.68979 11.5269 7.98881C11.4658 8.28782 11.3179 8.56235 11.1016 8.77829L9.43749 10.4524C9.69743 11.9246 10.4048 13.2818 11.464 14.3402C12.5231 15.3986 13.8829 16.1072 15.3594 16.3702L17.0547 14.6961C17.2746 14.4828 17.5526 14.3389 17.8541 14.2821C18.1556 14.2253 18.4672 14.2583 18.75 14.3768L21.6953 15.5526C21.9816 15.6716 22.226 15.8729 22.3971 16.1309C22.5682 16.3888 22.6584 16.6917 22.6562 17.0009V21.1122C22.6562 21.7317 22.4093 22.3259 21.9698 22.764C21.5302 23.202 20.9341 23.4481 20.3125 23.4481ZM4.68749 4.76043C4.48029 4.76043 4.28158 4.84247 4.13507 4.9885C3.98856 5.13452 3.90624 5.33258 3.90624 5.53909V5.60138C4.26562 10.211 6.57031 21.1122 20.2656 21.8908C20.3683 21.8972 20.4711 21.8832 20.5684 21.8498C20.6656 21.8164 20.7552 21.7642 20.8322 21.6962C20.9091 21.6282 20.9718 21.5458 21.0167 21.4536C21.0616 21.3613 21.0878 21.2612 21.0937 21.1589V17.0009L18.1484 15.8251L15.9062 18.0443L15.5312 17.9976C8.73437 17.1488 7.81249 10.3745 7.81249 10.3045L7.76562 9.9307L9.98437 7.69596L8.81249 4.76043H4.68749Z" fill="white"/>
</svg>
