<svg width="35" height="36" viewBox="0 0 35 36" fill="none" xmlns="http://www.w3.org/2000/svg">
<path fill-rule="evenodd" clip-rule="evenodd" d="M17.5 35.1825C7.83502 35.1825 0 27.3736 0 17.7407C0 8.10781 7.83502 0.298828 17.5 0.298828C27.165 0.298828 35 8.10781 35 17.7407C35 27.3736 27.165 35.1825 17.5 35.1825ZM17.7438 16.7618C19.1767 16.7618 26.1438 12.857 26.1438 12.857L26.155 12.1593C26.155 11.3891 25.5278 10.764 24.7529 10.764H10.7347C9.96054 10.764 9.33333 11.3891 9.33333 12.1593V12.7809C9.33333 12.7809 16.3767 16.7618 17.7438 16.7618ZM9.34453 14.95C9.34383 14.95 16.3767 18.6803 17.7438 18.6803C19.2425 18.6803 26.1438 14.95 26.1438 14.95L26.155 23.322C26.155 24.0923 25.5278 24.7174 24.7529 24.7174H10.7347C9.96124 24.7174 9.33333 24.0923 9.33333 23.322L9.34453 14.95Z" fill="white"/>
</svg>
