<svg width="35" height="36" viewBox="0 0 35 36" fill="none" xmlns="http://www.w3.org/2000/svg">
<path fill-rule="evenodd" clip-rule="evenodd" d="M17.5 0.298828C7.83502 0.298828 0 8.10781 0 17.7407C0 27.3736 7.83502 35.1825 17.5 35.1825C27.165 35.1825 35 27.3736 35 17.7407C35 8.10781 27.165 0.298828 17.5 0.298828ZM18.9249 23.2466C18.7523 23.4279 18.4154 23.4646 18.4154 23.4646H17.2998C17.2998 23.4646 14.8384 23.6093 12.67 21.4012C10.3054 18.9923 8.21737 14.2127 8.21737 14.2127C8.21737 14.2127 8.09686 13.8992 8.22741 13.7482C8.3744 13.5776 8.77521 13.5669 8.77521 13.5669L11.442 13.5499C11.442 13.5499 11.6931 13.5901 11.873 13.7197C12.0218 13.8268 12.1049 14.026 12.1049 14.026C12.1049 14.026 12.5358 15.0925 13.1064 16.0572C14.2212 17.941 14.7398 18.3527 15.1177 18.1509C15.6692 17.857 15.5039 15.4882 15.5039 15.4882C15.5039 15.4882 15.514 14.6289 15.2264 14.2458C15.0036 13.9492 14.5836 13.8626 14.3983 13.8385C14.2477 13.8188 14.4942 13.4776 14.8137 13.3249C15.2939 13.0953 16.1412 13.0819 17.1427 13.0917C17.9233 13.0998 18.1479 13.1471 18.4529 13.2195C19.1606 13.3865 19.1385 13.922 19.0908 15.0776C19.0766 15.4233 19.06 15.8243 19.06 16.2876C19.06 16.3917 19.0569 16.5027 19.0537 16.6169C19.0372 17.2089 19.0182 17.8869 19.417 18.1392C19.6215 18.2679 20.1209 18.158 21.3708 16.0822C21.9633 15.0979 22.407 13.9412 22.407 13.9412C22.407 13.9412 22.5047 13.7348 22.6554 13.6464C22.8096 13.5562 23.0178 13.5839 23.0178 13.5839L25.8243 13.5669C25.8243 13.5669 26.6679 13.4678 26.804 13.8411C26.9473 14.2315 26.489 15.1443 25.3423 16.6396C24.2547 18.058 23.7254 18.5805 23.7737 19.0424C23.8091 19.38 24.1532 19.6854 24.8137 20.2847C26.1921 21.5368 26.5615 22.1955 26.6503 22.3538C26.6577 22.3669 26.6631 22.3766 26.667 22.3829C27.2851 23.386 25.9814 23.4646 25.9814 23.4646L23.488 23.4985C23.488 23.4985 22.953 23.6021 22.2482 23.1287C21.8789 22.8809 21.5182 22.4763 21.1745 22.0908C20.6497 21.5022 20.1649 20.9584 19.7511 21.0868C19.0564 21.303 19.0774 22.767 19.0774 22.767C19.0774 22.767 19.0828 23.0805 18.9249 23.2466Z" fill="white"/>
</svg>
