<svg width="35" height="36" viewBox="0 0 35 36" fill="none" xmlns="http://www.w3.org/2000/svg">
<path fill-rule="evenodd" clip-rule="evenodd" d="M0 17.7407C0 27.3736 7.83502 35.1825 17.5 35.1825C27.165 35.1825 35 27.3736 35 17.7407C35 8.10781 27.165 0.298828 17.5 0.298828C7.83502 0.298828 0 8.10781 0 17.7407ZM14.2917 25.735L14.5894 21.2889L14.5892 21.2888L22.704 13.9901C23.0602 13.675 22.6262 13.5214 22.1535 13.8072L12.1387 20.1044L7.8128 18.7587C6.87861 18.4736 6.8719 17.8338 8.02254 17.3738L24.8794 10.8955C25.6493 10.5471 26.3924 11.0798 26.0985 12.2542L23.2278 25.7372C23.0273 26.6953 22.4465 26.9245 21.6417 26.4819L17.2687 23.2618L15.1667 25.2989C15.16 25.3053 15.1535 25.3117 15.1469 25.3181C14.9118 25.5462 14.7173 25.735 14.2917 25.735Z" fill="white"/>
</svg>
