<svg width="25" height="25" viewBox="0 0 25 25" fill="none" xmlns="http://www.w3.org/2000/svg">
<g clip-path="url(#clip0_22_64)">
<path d="M15.2066 7.64641C15.4086 7.64641 15.5723 7.48268 15.5723 7.28073C15.5723 7.07878 15.4086 6.91504 15.2066 6.91504H8.26736C8.06541 6.91504 7.90167 7.07878 7.90167 7.28073C7.90167 7.48268 8.06541 7.64641 8.26736 7.64641H15.2066Z" fill="#0297F1"/>
<path d="M4.21704 9.40377C4.21704 9.60572 4.38078 9.76946 4.58273 9.76946H13.1106C13.3125 9.76946 13.4762 9.60572 13.4762 9.40377C13.4762 9.20182 13.3125 9.03809 13.1106 9.03809H4.58273C4.38078 9.03809 4.21704 9.20182 4.21704 9.40377Z" fill="#0297F1"/>
<path d="M4.58273 11.8925H11.7369C11.9388 11.8925 12.1026 11.7288 12.1026 11.5268C12.1026 11.3249 11.9388 11.1611 11.7369 11.1611H4.58273C4.38078 11.1611 4.21704 11.3249 4.21704 11.5268C4.21704 11.7288 4.38078 11.8925 4.58273 11.8925Z" fill="#0297F1"/>
<path d="M4.58272 14.0155H11.1455C11.3474 14.0155 11.5112 13.8518 11.5112 13.6499C11.5112 13.4479 11.3474 13.2842 11.1455 13.2842H4.58272C4.38078 13.2842 4.21704 13.4479 4.21704 13.6499C4.21704 13.8519 4.38078 14.0155 4.58272 14.0155Z" fill="#0297F1"/>
<path d="M4.58272 16.1386H11.1455C11.3474 16.1386 11.5112 15.9749 11.5112 15.7729C11.5112 15.571 11.3474 15.4072 11.1455 15.4072H4.58272C4.38078 15.4072 4.21704 15.571 4.21704 15.7729C4.21704 15.9749 4.38078 16.1386 4.58272 16.1386Z" fill="#0297F1"/>
<path d="M4.58273 18.2616H11.7369C11.9388 18.2616 12.1026 18.0979 12.1026 17.896C12.1026 17.694 11.9388 17.5303 11.7369 17.5303H4.58273C4.38078 17.5303 4.21704 17.694 4.21704 17.896C4.21704 18.0979 4.38078 18.2616 4.58273 18.2616Z" fill="#0297F1"/>
<path d="M4.58272 20.3847H15.2065C15.4085 20.3847 15.5722 20.2209 15.5722 20.019C15.5722 19.8171 15.4085 19.6533 15.2065 19.6533H4.58272C4.38078 19.6533 4.21704 19.8171 4.21704 20.019C4.21704 20.221 4.38078 20.3847 4.58272 20.3847Z" fill="#0297F1"/>
<path d="M4.58272 22.5072H15.2065C15.4085 22.5072 15.5722 22.3435 15.5722 22.1416C15.5722 21.9396 15.4085 21.7759 15.2065 21.7759H4.58272C4.38078 21.7759 4.21704 21.9396 4.21704 22.1416C4.21704 22.3436 4.38078 22.5072 4.58272 22.5072Z" fill="#0297F1"/>
<path d="M17.881 8.97534C17.856 8.97534 17.8313 8.97646 17.8064 8.97681V4.32725C17.8064 3.71828 17.3109 3.22283 16.7019 3.22283H13.8839V2.66501C13.8839 2.3004 13.5885 2.00382 13.2254 2.00382H11.7177V1.83657C11.7177 0.823851 10.8999 0 9.89469 0C8.88949 0 8.07169 0.823851 8.07169 1.83652V2.00377H6.56391C6.20086 2.00377 5.90545 2.3004 5.90545 2.66496V3.22283H3.08739C2.47842 3.22283 1.98297 3.71828 1.98297 4.32725V6.05914C1.98297 6.26109 2.14671 6.42483 2.34866 6.42483C2.5506 6.42483 2.71434 6.26109 2.71434 6.05914V4.32725C2.71434 4.12155 2.88169 3.9542 3.08739 3.9542H5.90545V4.51207C5.90545 4.87663 6.20086 5.17326 6.56391 5.17326H13.2255C13.5886 5.17326 13.884 4.87663 13.884 4.51207V3.9542H16.702C16.9077 3.9542 17.075 4.12155 17.075 4.32725V9.03801C16.2676 9.1646 15.5055 9.48173 14.8375 9.97386C14.6749 10.0936 14.6402 10.3226 14.76 10.4851C14.8798 10.6477 15.1088 10.6824 15.2713 10.5626C16.0314 10.0027 16.9338 9.70671 17.881 9.70671C20.3098 9.70671 22.2857 11.6827 22.2857 14.1114C22.2857 16.5402 20.3098 18.5161 17.881 18.5161C15.4522 18.5161 13.4763 16.5402 13.4763 14.1114C13.4763 13.2487 13.7256 12.4133 14.1972 11.6956C14.3081 11.5269 14.2612 11.3001 14.0925 11.1892C13.9238 11.0783 13.697 11.1252 13.586 11.2939C13.0358 12.1312 12.7449 13.1055 12.7449 14.1114C12.7449 16.6693 14.6245 18.7962 17.075 19.184V23.8956C17.075 24.1013 16.9076 24.2686 16.7019 24.2686H3.08739C2.88169 24.2686 2.71434 24.1013 2.71434 23.8956V7.75579C2.71434 7.55384 2.5506 7.39011 2.34866 7.39011C2.14671 7.39011 1.98297 7.55384 1.98297 7.75579V23.8956C1.98297 24.5046 2.47842 25 3.08739 25H16.702C17.311 25 17.8064 24.5046 17.8064 23.8956V19.2465C17.8313 19.2469 17.8561 19.2474 17.881 19.2474C20.713 19.2474 23.0171 16.9434 23.0171 14.1114C23.0171 11.2794 20.713 8.97534 17.881 8.97534ZM13.1526 4.44194H6.63672V2.73514H8.43727C8.63922 2.73514 8.80296 2.5714 8.80296 2.36946V1.83652C8.80296 1.22711 9.2927 0.731319 9.89464 0.731319C10.4966 0.731319 10.9863 1.22711 10.9863 1.83652V2.36941C10.9863 2.57136 11.1501 2.73509 11.352 2.73509H13.1526V4.44194H13.1526Z" fill="#0297F1"/>
<path d="M17.2154 16.6747C17.226 16.6747 17.2365 16.6746 17.248 16.6743C17.5535 16.6655 17.8475 16.5318 18.0547 16.3073L20.679 13.465C20.8859 13.2408 20.9932 12.9495 20.9811 12.6446C20.969 12.3397 20.8388 12.0579 20.6146 11.8508C20.3905 11.6439 20.0993 11.5368 19.7943 11.5487C19.4894 11.5609 19.2075 11.6911 19.0006 11.9152L17.169 13.8989L16.716 13.4611C16.2632 13.0235 15.5386 13.0359 15.1009 13.4887C14.6632 13.9415 14.6755 14.6661 15.1284 15.1038L16.4216 16.3537C16.6357 16.5608 16.9176 16.6747 17.2154 16.6747ZM15.6267 13.997C15.7072 13.9137 15.8147 13.8718 15.9223 13.8718C16.0252 13.8718 16.1281 13.9101 16.2078 13.9871L16.9298 14.6849C17.0006 14.7533 17.0962 14.7902 17.1943 14.7874C17.2927 14.7846 17.3858 14.7423 17.4526 14.67C17.4526 14.67 19.5372 12.4122 19.5379 12.4113C19.6941 12.2421 19.9472 12.23 20.1185 12.3882C20.2839 12.5409 20.2945 12.8032 20.1416 12.9688L17.5173 15.8112C17.4428 15.892 17.337 15.9401 17.2282 15.9432L17.2155 15.9434C17.1084 15.9434 17.0069 15.9024 16.9299 15.8279L15.6366 14.578C15.4737 14.4205 15.4692 14.1599 15.6267 13.997Z" fill="#0297F1"/>
</g>
<defs>
<clipPath id="clip0_22_64">
<rect width="25" height="25" fill="white"/>
</clipPath>
</defs>
</svg>
